<svg fill="none" xmlns="http://www.w3.org/2000/svg" viewBox="0 0 24 24">
  <g clip-path="url(#Tbm5hgPbL94Ua)">
    <path d="M24 17.028C24 21.396 21.396 24 17.028 24H15.6c-.66 0-1.2-.54-1.2-1.2v-6.924a.6.6 0 01.588-.6l2.112-.036a.383.383 0 00.348-.3l.42-2.292a.363.363 0 00-.36-.42l-2.556.036a.61.61 0 01-.612-.588l-.048-2.94c0-.192.156-.36.36-.36l2.88-.048c.204 0 .36-.156.36-.36l-.048-2.88a.354.354 0 00-.36-.36l-3.24.048a3.596 3.596 0 00-3.54 3.66l.06 3.3a.594.594 0 01-.588.612l-1.44.024a.354.354 0 00-.36.36l.036 2.28c0 .204.156.36.36.36l1.44-.024c.336 0 .6.264.612.588l.108 6.84A1.201 1.201 0 019.732 24h-2.76C2.604 24 0 21.396 0 17.016V6.972C0 2.604 2.604 0 6.972 0h10.056C21.396 0 24 2.604 24 6.972v10.056z" fill="#727272"/>
  </g>
  <defs>
    <clipPath id="Tbm5hgPbL94Ua">
      <path fill="#fff" d="M0 0h24v24H0z"/>
    </clipPath>
  </defs>
</svg>
