<svg fill="none" xmlns="http://www.w3.org/2000/svg" viewBox="0 0 35 22">
  <path opacity=".07" d="M32.237 0H2.763C1.197 0 0 1.19 0 2.745v16.47c0 1.556 1.29 2.746 2.763 2.746h29.474c1.566 0 2.763-1.19 2.763-2.745V2.746C35 1.19 33.71 0 32.237 0z" fill="#2E2E2E"/>
  <path d="M32.237.915c1.013 0 1.842.824 1.842 1.83v16.47c0 1.007-.829 1.83-1.842 1.83H2.763a1.842 1.842 0 01-1.842-1.83V2.746c0-1.006.829-1.83 1.842-1.83h29.474z" fill="#fff"/>
  <path d="M8.263 9.396l.713 1.716h-1.42l.707-1.716zm14.806.07h-2.742v.758h2.697v1.133h-2.692v.844h2.742v.676l1.913-2.054-1.913-2.141-.005.785zm-12.953-2.14h3.68l.817 1.77.757-1.776h9.55l.994 1.09 1.027-1.09h4.387l-3.241 3.525 3.208 3.503h-4.453l-.993-1.09-1.036 1.09H9.238l-.455-1.09h-1.04l-.457 1.09H3.684L6.711 7.32H9.87l.246.006zm7.979.986h-2.062l-1.382 3.236-1.496-3.236h-2.047v4.402L9.21 8.311H7.375L5.18 13.356h1.432l.455-1.09H9.46l.455 1.09h2.505v-3.6l1.613 3.605h1.096l1.603-3.595v3.596h1.343l.022-5.05h-.001zm8.603 2.533l2.33-2.533h-1.677l-1.475 1.58-1.426-1.58h-5.428v5.05h5.35l1.488-1.591 1.425 1.59h1.727l-2.314-2.516z" fill="#006FCF"/>
</svg>
