<svg fill="none" xmlns="http://www.w3.org/2000/svg" viewBox="0 0 60 60">
  <g clip-path="url(#fMVCVBV0KXl5a)">
    <path d="M0 33.196v-6.061c.02.13.05.26.06.39.01.17 0 .33.02.5.01.15.04.3.05.44.31-7.572 3.24-14.023 8.47-19.403C13.86 3.65 20.3.68 27.79.11c-.17-.03-.38-.07-.6-.11h6l-.94.11c7.39.57 13.76 3.53 19.01 8.821 5.26 5.301 8.15 11.712 8.65 19.154.03-.18.06-.38.09-.59v4.75c-.03-.08-.06-.16-.08-.22-.56 7.412-3.42 13.813-8.66 19.084-5.23 5.27-11.6 8.19-19.02 8.791.17.03.34.07.51.1h-5.94c.34-.03.67-.07 1.01-.1a.581.581 0 00-.28-.07c-.76-.06-1.52-.07-2.27-.18-1.74-.28-3.43-.75-5.09-1.33-5.86-2.07-10.64-5.601-14.33-10.592-1.91-2.58-3.32-5.421-4.35-8.452-.6-1.75-.97-3.55-1.18-5.38-.08-.73-.09-1.47-.12-2.21-.05.07-.06.14-.06.21l-.12 1.29-.02.01zm45.31-4.121v-.35l-.12-2.56c-.11-2.441-.57-4.831-1.11-7.212-.24-1.03-.56-2.05-.8-3.08-.08-.35-.19-.42-.52-.33-.87.22-1.73.43-2.61.61-2.95.59-5.93.99-8.95.98-.24 0-.28.09-.28.31v11.312c0 .28.1.32.34.32h14.05zm-16.25 0c.01-.1.02-.15.02-.2V17.473c0-.29-.11-.33-.36-.34-1.36-.05-2.73-.08-4.08-.21-2.53-.25-5.02-.74-7.48-1.38-.28-.07-.37 0-.43.26-.35 1.45-.79 2.89-1.06 4.36-.34 1.83-.58 3.681-.81 5.521-.12.99-.1 1.99-.15 2.99-.02.41-.03.41.39.41h13.95l.01-.01zm0 13.642V30.935H14.99c-.24 0-.32.06-.3.3.03.33.02.67.05 1 .15 1.73.25 3.47.49 5.181.32 2.26.81 4.501 1.49 6.691.1.31.21.34.48.27.91-.23 1.82-.44 2.73-.65 1.97-.45 3.98-.65 5.99-.85 1.02-.1 2.06-.11 3.13-.16h.01zm1.86-11.782v11.482c0 .2 0 .36.29.35 2.29-.05 4.55.24 6.8.6 1.64.26 3.26.67 4.88 1.02.18.04.26.01.31-.17.36-1.41.76-2.81 1.07-4.23.62-2.8.97-5.641.97-8.512 0-.53 0-.53-.54-.53H30.91l.01-.01zm13.94-16.012c.35 1.27.73 2.49 1.02 3.73.78 3.32 1.22 6.691 1.26 10.112 0 .2 0 .32.27.32 3.37-.01 6.75 0 10.12-.01.18 0 .36-.02.56-.03-.14-3.56-.86-6.941-2.25-10.182-1.09-2.52-2.51-4.85-4.29-6.931-2.15 1.27-4.39 2.23-6.69 2.99zM8.4 11.921s-.04.1-.07.14a27.299 27.299 0 00-4.83 8.461 29.11 29.11 0 00-1.62 8.272c-.01.25.08.29.3.29h10.28c.26 0 .35-.07.36-.35.08-1.46.17-2.93.3-4.39.21-2.331.71-4.602 1.3-6.862.22-.84.48-1.67.73-2.54a35.29 35.29 0 01-6.76-3.011l.01-.01zm4.37 19.033c-.08 0-.18-.02-.27-.02-3.46 0-6.91 0-10.37-.01-.21 0-.26.07-.25.27.12 2.42.52 4.801 1.22 7.111 1.03 3.4 2.68 6.492 4.91 9.262.35.43.34.42.83.15 1.9-1.07 3.88-1.96 5.95-2.61.28-.09.36-.18.25-.48-1.15-3.321-1.72-6.762-2.05-10.252-.11-1.13-.15-2.26-.22-3.43v.01zm45.34 0c-.13-.01-.19-.02-.25-.02H47.4c-.24 0-.28.11-.28.31-.02 2.06-.2 4.11-.5 6.151-.3 2.03-.75 4.03-1.28 6.001-.14.53-.32 1.05-.48 1.57.04.03.07.05.1.06.09.03.18.06.26.09 2.17.71 4.25 1.62 6.22 2.791.06.04.22 0 .27-.05.16-.16.3-.34.45-.52 3.15-4.02 5.03-8.562 5.68-13.612.12-.91.18-1.82.27-2.76v-.01zM29.05 44.607c-3.15-.03-10.06.93-11.6 1.63.2.47.39.95.6 1.42 1.22 2.751 2.75 5.302 4.95 7.402 1.31 1.24 2.78 2.22 4.53 2.72.49.14 1 .22 1.52.34V44.608zm1.89 13.483c.45-.08.86-.14 1.26-.24 1.8-.46 3.31-1.42 4.66-2.68 2.12-1.981 3.63-4.382 4.83-6.992.29-.64.56-1.29.84-1.96-.71-.18-1.35-.36-2.01-.5-3.02-.63-6.07-1.02-9.16-1.09-.44 0-.44-.01-.44.44V57.72c0 .11.01.22.02.37zM29.05 1.93c-.31.04-.58.06-.84.11-1.71.36-3.2 1.16-4.52 2.28-2.9 2.471-4.7 5.682-6.12 9.142-.07.16-.04.25.15.29 1.73.35 3.45.75 5.19 1.05 1.82.31 3.66.43 5.5.45.21 0 .42.03.64.04V1.93zm1.88 0c0 .13-.02.24-.02.35v12.682c0 .16-.02.3.23.3 3.7-.03 7.34-.55 10.91-1.48.12-.03.25-.07.4-.12-.11-.27-.19-.5-.29-.73-1.13-2.68-2.53-5.19-4.55-7.331-1.26-1.34-2.68-2.46-4.41-3.14-.73-.29-1.47-.49-2.29-.54l.02.01zm6.42 55.17h.18l.51-.15c2.1-.57 4.07-1.46 5.95-2.53a26.95 26.95 0 006.07-4.712c.34-.35.35-.34-.07-.57-1.45-.79-2.96-1.46-4.52-2.03-.4-.14-.8-.27-1.22-.41-1.57 3.96-3.65 7.541-6.91 10.411l.01-.01zm-27.7-7.712c1.95 2.77 10.49 7.842 12.86 7.672-.67-.71-1.4-1.41-2.05-2.17-2.01-2.341-3.44-5.022-4.58-7.862-.1-.25-.2-.3-.46-.22a30.17 30.17 0 00-5.62 2.45c-.06.03-.1.09-.16.13h.01zM37.45 2.88c.06.12.06.14.08.15 1.81 1.66 3.35 3.551 4.52 5.701.74 1.36 1.36 2.78 2.03 4.171.08.17.12.32.4.23a33.9 33.9 0 005.3-2.26c.18-.1.35-.21.55-.32-3.61-3.72-7.84-6.291-12.88-7.672zM9.68 10.542c.14.09.23.16.33.21.79.4 1.56.83 2.38 1.17 1.02.43 2.08.79 3.12 1.18.19.07.29.04.38-.17.3-.7.6-1.39.93-2.08 1.28-2.65 2.84-5.111 4.99-7.161.27-.26.54-.51.81-.76l-.06-.09c-4.97 1.39-9.25 3.94-12.88 7.69v.01z" fill="#2E2E2E"/>
  </g>
  <defs>
    <clipPath id="fMVCVBV0KXl5a">
      <path fill="#fff" d="M0 0h60v60H0z"/>
    </clipPath>
  </defs>
</svg>
