<svg fill="none" xmlns="http://www.w3.org/2000/svg" viewBox="0 0 35 22">
  <g clip-path="url(#83y3h7Kiehfda)">
    <path opacity=".07" d="M32.237 0H2.763C1.197 0 0 1.19 0 2.745v16.47c0 1.556 1.29 2.746 2.763 2.746h29.474c1.566 0 2.763-1.19 2.763-2.745V2.746C35 1.19 33.71 0 32.237 0z" fill="#2E2E2E"/>
    <path d="M32.237.915c1.013 0 1.842.824 1.842 1.83v16.47c0 1.007-.829 1.83-1.842 1.83H2.763a1.842 1.842 0 01-1.842-1.83V2.746c0-1.006.829-1.83 1.842-1.83h29.474z" fill="#fff"/>
    <path d="M26.066 9.242h-.276c-.369.915-.645 1.372-.922 2.745h1.75c-.276-1.373-.276-2.013-.552-2.745zm2.67 5.398h-1.565c-.092 0-.092 0-.184-.091l-.184-.823-.093-.184H24.5c-.092 0-.184 0-.184.184l-.276.823c0 .091-.093.091-.093.091h-1.934l.184-.457 2.671-6.222c0-.458.277-.64.737-.64h1.382c.092 0 .184 0 .184.182l1.29 5.948c.092.366.184.64.184 1.006.092.092.092.092.092.183zm-12.341-.274l.368-1.647c.092 0 .184.091.184.091.645.275 1.29.458 1.935.367.184 0 .46-.092.644-.184.46-.183.46-.64.092-1.006-.184-.183-.46-.275-.736-.458-.369-.183-.737-.366-1.014-.64-1.105-.915-.736-2.196-.092-2.837.553-.366.83-.732 1.566-.732 1.105 0 2.303 0 2.855.183h.093a9.52 9.52 0 01-.369 1.556c-.46-.183-.921-.366-1.381-.366-.277 0-.553 0-.83.091-.184 0-.276.092-.368.183a.44.44 0 000 .64l.46.367c.37.183.738.366 1.014.549.46.274.92.732 1.013 1.28.184.824-.092 1.556-.829 2.105-.46.367-.645.55-1.29.55-1.289 0-2.302.091-3.131-.184-.092.184-.092.184-.184.092zm-3.224.274c.092-.64.092-.64.184-.915.46-2.013.921-4.117 1.29-6.13.092-.183.092-.275.276-.275h1.658a27.35 27.35 0 01-.645 2.928c-.276 1.373-.552 2.745-.92 4.118 0 .183-.093.183-.277.183M4.605 7.503c0-.091.184-.183.277-.183h3.131c.46 0 .83.275.921.732l.83 4.026c0 .092 0 .092.091.183 0-.091.092-.091.092-.091l1.935-4.667c-.092-.091 0-.183.092-.183h1.934c0 .092 0 .092-.092.183l-2.856 6.68c-.092.183-.092.274-.184.366-.092.091-.276 0-.46 0H8.934c-.092 0-.184 0-.184-.183L7.276 8.693c-.184-.183-.46-.458-.829-.55-.552-.274-1.565-.457-1.75-.457l-.092-.183z" fill="#142688"/>
  </g>
  <defs>
    <clipPath id="83y3h7Kiehfda">
      <path fill="#fff" d="M0 0h35v21.961H0z"/>
    </clipPath>
  </defs>
</svg>
