<svg fill="none" xmlns="http://www.w3.org/2000/svg" viewBox="0 0 35 22">
  <g clip-path="url(#EgrzxD9A5pzYa)">
    <path opacity=".07" d="M32.237 0H2.763C1.197 0 0 1.19 0 2.745v16.47c0 1.556 1.29 2.746 2.763 2.746h29.474c1.566 0 2.763-1.19 2.763-2.745V2.746C35 1.19 33.71 0 32.237 0z" fill="#2E2E2E"/>
    <path d="M32.237.915c1.013 0 1.842.824 1.842 1.83v16.47c0 1.007-.829 1.83-1.842 1.83H2.763a1.842 1.842 0 01-1.842-1.83V2.746c0-1.006.829-1.83 1.842-1.83h29.474z" fill="#fff"/>
    <path d="M13.816 17.386c3.56 0 6.447-2.868 6.447-6.406 0-3.537-2.886-6.405-6.447-6.405S7.368 7.443 7.368 10.98c0 3.538 2.887 6.406 6.448 6.406z" fill="#EB001B"/>
    <path d="M21.184 17.386c3.561 0 6.448-2.868 6.448-6.406 0-3.537-2.887-6.405-6.448-6.405-3.56 0-6.447 2.868-6.447 6.405 0 3.538 2.886 6.406 6.447 6.406z" fill="#F79E1B"/>
    <path d="M20.263 10.98c0-2.196-1.105-4.117-2.763-5.215-1.658 1.19-2.763 3.11-2.763 5.215s1.105 4.118 2.763 5.216c1.658-1.098 2.763-3.02 2.763-5.216z" fill="#FF5F00"/>
  </g>
  <defs>
    <clipPath id="EgrzxD9A5pzYa">
      <path fill="#fff" d="M0 0h35v21.961H0z"/>
    </clipPath>
  </defs>
</svg>
