<svg fill="none" xmlns="http://www.w3.org/2000/svg" viewBox="0 0 35 22">
  <g clip-path="url(#yPwQ_Jydlmqqa)">
    <path opacity=".07" d="M32.237 0H2.763C1.197 0 0 1.19 0 2.745v16.47c0 1.556 1.29 2.746 2.763 2.746h29.474c1.566 0 2.763-1.19 2.763-2.745V2.746C35 1.19 33.71 0 32.237 0z" fill="#2E2E2E"/>
    <path d="M32.237.915c1.013 0 1.842.824 1.842 1.83v16.47c0 1.007-.829 1.83-1.842 1.83H2.763a1.842 1.842 0 01-1.842-1.83V2.746c0-1.006.829-1.83 1.842-1.83h29.474z" fill="#fff"/>
    <path d="M22.013 7.595c.184-.915 0-1.556-.553-2.105-.552-.64-1.565-.915-2.855-.915H14.83c-.276 0-.46.183-.553.458l-1.381 9.242c0 .182.092.365.276.365h2.487l.368-3.11 1.658-2.014 4.33-1.921z" fill="#003087"/>
    <path d="M22.013 7.595l-.184.183c-.46 2.562-2.026 3.477-4.237 3.477H16.58c-.276 0-.46.183-.553.457l-.552 3.569-.184.915c0 .183.092.366.276.366H17.5c.276 0 .46-.183.46-.366v-.091l.369-2.197v-.091c0-.183.276-.366.46-.366h.277c1.934 0 3.408-.732 3.776-2.928.184-.915.092-1.647-.368-2.196-.092-.458-.277-.64-.46-.732z" fill="#3086C8"/>
    <path d="M21.46 7.412c-.092-.092-.184-.092-.276-.092-.092 0-.184 0-.276-.091-.276-.092-.645-.092-1.013-.092h-2.763c-.093 0-.185 0-.185.092-.184.091-.276.183-.276.366l-.645 4.026v.091c0-.274.277-.457.553-.457h1.197c2.303 0 3.777-.915 4.237-3.477v-.183a.706.706 0 00-.46-.183h-.093z" fill="#012169"/>
  </g>
  <defs>
    <clipPath id="yPwQ_Jydlmqqa">
      <path fill="#fff" d="M0 0h35v21.961H0z"/>
    </clipPath>
  </defs>
</svg>
