<svg fill="none" xmlns="http://www.w3.org/2000/svg" viewBox="0 0 16 16">
  <g clip-path="url(#V8633FE50dQVa)">
    <path d="M9.467 10.84a8.089 8.089 0 01-4.302-4.31L7.43 4.258 3.258.081 1.144 2.195A3.933 3.933 0 000 5c0 4.832 6.168 11 11 11a3.927 3.927 0 002.805-1.144l2.114-2.114-4.177-4.177-2.275 2.276zm3.394 3.073a2.6 2.6 0 01-1.86.754c-4.156 0-9.668-5.512-9.668-9.667a2.605 2.605 0 01.754-1.862l1.171-1.171L5.55 4.258 3.593 6.215l.163.409a9.582 9.582 0 005.631 5.624l.404.154 1.951-1.951 2.291 2.291-1.171 1.171zM9.333 1.333V0A6.674 6.674 0 0116 6.667h-1.333a5.34 5.34 0 00-5.334-5.334zm0 2.667V2.667a4.004 4.004 0 014 4H12A2.667 2.667 0 009.333 4z" fill="#727272"/>
  </g>
  <defs>
    <clipPath id="V8633FE50dQVa">
      <path fill="#fff" d="M0 0h16v16H0z"/>
    </clipPath>
  </defs>
</svg>
